<?xml version="1.0" encoding="UTF-8" standalone="no"?>
<!-- Created with Inkscape (http://www.inkscape.org/) -->

<svg
   version="1.1"
   id="svg1"
   width="5532"
   height="2128"
   viewBox="0 0 5532 2128"
   sodipodi:docname="logo 2024.svp"
   inkscape:version="1.3.2 (091e20ef0f, 2023-11-25, custom)"
   xmlns:inkscape="http://www.inkscape.org/namespaces/inkscape"
   xmlns:sodipodi="http://sodipodi.sourceforge.net/DTD/sodipodi-0.dtd"
   xmlns="http://www.w3.org/2000/svg"
   xmlns:svg="http://www.w3.org/2000/svg">
  <defs
     id="defs1" />
  <sodipodi:namedview
     id="namedview1"
     pagecolor="#505050"
     bordercolor="#ffffff"
     borderopacity="1"
     inkscape:showpageshadow="0"
     inkscape:pageopacity="0"
     inkscape:pagecheckerboard="1"
     inkscape:deskcolor="#d1d1d1"
     showgrid="false"
     inkscape:zoom="0.31326826"
     inkscape:cx="2766"
     inkscape:cy="1064.5828"
     inkscape:window-width="2560"
     inkscape:window-height="1382"
     inkscape:window-x="0"
     inkscape:window-y="0"
     inkscape:window-maximized="1"
     inkscape:current-layer="g1" />
  <g
     inkscape:groupmode="layer"
     inkscape:label="Image"
     id="g1">
    <path
       style="fill:#f5f5f5;stroke:none"
       d="m 645.33333,98.039062 c -15.56705,3.572268 -27.93123,20.558758 -38.66666,31.294268 l -77.33334,77.33334 -86.66666,86.66666 c -17.09217,17.09213 -37.24467,33.21794 -46.83232,56 -7.37126,17.51547 -5.16768,37.45736 -5.16768,56 v 96 345.33334 234.66663 c 0,18.5633 -7.21346,72.198 24,67.7202 11.10107,-1.5925 20.33402,-10.9282 28,-18.4064 14.84045,-14.4769 29.34013,-29.3206 44,-43.9804 L 601.33333,972 c 19.06185,-19.06185 38.06665,-44.19132 61.33334,-58.06274 C 687.25301,899.27913 717.85905,904 745.33333,904 c 7.87199,0 24.91993,1.61174 26.30355,-9.35799 C 773.1901,882.32788 754.37166,867.74422 746.66772,860 728.30306,841.53914 709.84391,822.32414 692.7675,802.66667 c -7.01302,-8.073 -16.13794,-14.91586 -19.7531,-25.33334 -10.1029,-29.11263 -3.68107,-68.11572 -3.68107,-98.66666 V 476 182.66667 c 0,-21.75765 2.4714,-45.22152 -1.56071,-66.66667 -2.17545,-11.57031 -9.79915,-20.861491 -22.43929,-17.960938 m 594.66777,0.284017 c -8.4225,3.224771 -11.0685,12.314781 -12.5135,20.343591 -3.5097,19.50195 -0.8209,41.53597 -0.8209,61.33333 v 256 232 c 0,33.9873 7.5372,78.48226 -4.3416,110.66667 -3.7979,10.29004 -13.5701,17.35042 -20.6111,25.33333 -17.636,19.99528 -36.2409,39.76685 -55.0484,58.66667 -7.2123,7.2478 -26.7313,22.30534 -21.8559,34.52164 3.0866,7.73413 15.1602,6.80909 21.857,6.81169 20.2225,0.008 42.7471,-2.764 62.6666,0.82096 36.0299,6.48438 62.2348,44.08049 86.6667,68.51237 L 1434.6667,1112 c 12.6923,12.6923 34.4493,43.6695 55.9948,36.5812 19.7983,-6.5135 14.6718,-44.7401 14.6718,-60.5812 V 900 520 412 c 0,-21.33545 2.2399,-43.76921 -5.9373,-64 -7.662,-18.95622 -23.9427,-32.54671 -38.0627,-46.66667 L 1392,232 1285.3333,125.33333 c -10.2085,-10.20849 -28.1638,-33.583818 -45.3322,-27.010251 M 2252,766.66667 h 201.3333 v 172 c 0,18.48934 -6.2846,50.0603 9.4579,63.47943 14.5039,12.3633 42.206,7.1872 59.8755,7.1872 h 150.6666 c 19.9009,0 41.4991,-3.4698 42.6143,-27.99997 C 2718.321,929.12655 2716,876.26676 2716,824 V 509.33333 376 c 0,-16.70573 4.6987,-42.00472 -2.5596,-57.33333 -9.9044,-20.91716 -35.8369,-16 -54.7737,-16 H 2512 c -18.0059,0 -41.8337,-4.89893 -53.8014,12.0052 -10.6275,15.01075 -4.8653,45.02833 -4.8653,62.66146 V 536 H 2252 V 377.33333 c 0,-17.63297 5.762,-47.65071 -4.8652,-62.66146 -11.8921,-16.7972 -35.9281,-12.0052 -53.8015,-12.0052 h -146.6666 c -19.0523,0 -44.808,-5.04688 -54.7738,16 -7.2583,15.32861 -2.5596,40.62776 -2.5596,57.33333 v 133.33333 316 c 0,52.23771 -2.5027,105.16537 0.054,157.33334 1.2711,25.94123 26.8706,26.66663 46.6131,26.66663 h 148 c 17.3659,0 44.291,5.0023 58.5412,-7.1872 15.7015,-13.43101 9.4588,-45.05479 9.4588,-63.47943 v -172 M 3089.3333,904 h 172 49.3334 c 6.5765,0 16.3483,-1.7959 22.4886,0.80452 7.4498,3.15487 9.7262,18.95801 12.249,25.86215 7.6439,20.91959 12.9014,50.39909 29.4938,66.26546 14.8688,14.21827 36.7852,12.40117 55.7686,12.40117 h 120 c 16.8392,0 40.2519,4.1346 55.999,-2.6594 25.2191,-10.88061 5.8877,-45.03083 0,-62.6739 -20.4584,-61.31519 -40.0303,-123.5564 -62.9229,-184 -38.4801,-101.59928 -71.1631,-206.25798 -105.5215,-309.33333 -10.1028,-30.30909 -20.6201,-60.48812 -31.0966,-90.66667 -5.0036,-14.41325 -8,-32.14909 -18.2305,-43.94645 -17.6143,-20.3125 -54.3233,-13.38688 -78.2285,-13.38688 H 3120 c -22.8558,0 -58.1911,-6.64095 -77.3281,8.5205 -12.6944,10.05713 -16.0235,26.20313 -20.8942,40.81283 -8.9173,26.74707 -18.5593,53.2793 -27.5544,80 -29.5059,87.6512 -59.9902,174.96094 -89.3343,262.66667 -24.139,72.14786 -49.7181,143.82047 -73.778,216 -6.0898,18.26985 -12.5755,36.3929 -18.6667,54.66666 -2.9072,8.72168 -7.6989,18.63233 -5.0143,28 2.8734,10.02657 13.5635,15.16687 23.2367,15.87967 25.4941,1.8785 51.7656,0.1203 77.3333,0.1203 h 86.6667 c 16.456,0 34.6282,1.6072 49.3333,-7.1368 21.6732,-12.88734 26.7181,-44.24907 34.7376,-66.1965 3.7715,-10.32145 8.9655,-21.11572 10.5957,-32 M 4002.6667,784 H 4064 c 6.2402,0 18.1429,-2.27816 23.1504,2.13786 10.9154,9.62589 16.9632,35.22876 22.7487,48.52881 16.6833,38.35278 33.8379,76.53784 51.0267,114.66666 13.6068,30.18311 21.5361,57.31007 59.0742,59.88067 63.3509,4.3384 128.4844,0.1193 192,0.1193 18.0413,0 55.3392,6.2378 58.109,-19.99997 1.9584,-18.54972 -19.3974,-45.69954 -28.2099,-61.33333 -23.9766,-42.53556 -45.7484,-86.38289 -68.9772,-129.33333 -6.7119,-12.4104 -13.461,-24.79484 -19.9333,-37.33334 -2.0521,-3.97558 -6.9639,-9.60107 -6.8919,-14.22835 0.092,-5.91439 16.2015,-13.02718 20.57,-16.2985 18.7662,-14.0529 35.3867,-31.10124 48.18,-50.80648 40.1465,-61.83708 46.3929,-152.73519 20.5862,-221.33333 C 4428.1172,439.22038 4417.6618,420.45964 4405.0195,404 4315.8421,287.89372 4157.6455,302.66667 4028,302.66667 h -101.3333 -132 c -15.571,0 -40.1908,-4.75342 -53.2129,5.25211 -13.9694,10.7334 -10.7871,28.51319 -10.7871,44.08122 v 110.66667 394.66666 100 c 0,13.15902 -3.0759,30.33309 5.858,41.27987 12.5121,15.3311 37.9834,10.7201 55.4753,10.7201 h 149.3333 c 18.5896,0 45.5713,4.9044 57.3734,-13.33843 9.5824,-14.81176 3.96,-44.19637 3.96,-61.3282 V 784 m 846.6666,28 V 748 H 5106.6667 5172 c 10.3353,0 21.8105,1.73031 30.6133,-4.85091 13.1142,-9.80485 10.72,-26.07748 10.72,-40.48242 V 604 c 0,-16.07487 0.309,-32.14502 -17.3333,-39.35596 -10.2067,-4.17171 -23.8346,-1.97737 -34.6667,-1.97737 H 5092 4849.3333 V 500 h 288 H 5216 c 12.1253,0 27.5732,2.02409 38.6615,-3.8929 14.9332,-7.96875 14.6718,-24.0822 14.6718,-38.77377 v -96 c 0,-13.42724 3.1895,-31.73079 -3.2562,-44 -8.6689,-16.50097 -26.2832,-14.66666 -42.0771,-14.66666 h -108 -380 -97.3333 c -13.2676,0 -30.2146,-3.00798 -41.3129,5.85807 -13.3841,10.69222 -10.6871,28.24577 -10.6871,43.47526 v 109.33333 400 V 960 c 0,13.49992 -2.417,30.48234 8.2838,40.895 17.3252,16.8585 61.3558,8.4383 83.7162,8.4383 H 4905.3333 5184 c 24.54,0 79.1442,10.5331 92.4157,-15.99997 5.71,-11.41552 2.251,-30.15836 2.251,-42.66666 v -96 c 0,-14.99862 1.7877,-30.61166 -13.3386,-39.28915 C 5255.1452,809.53589 5240.6432,812 5229.3333,812 H 5148 4849.3333 M 4002.6667,597.33333 V 490.66667 h 100 c 15.3655,0 33.9736,-2.99382 48,4.43619 32.0475,16.9764 34.7815,79.77898 1.3333,96.90219 -15.237,7.80029 -34.1497,5.32828 -50.6667,5.32828 h -98.6666 m -789.3334,-98.66666 45.3334,132 25.3333,76 h -142.6667 c 14.8461,-45.55339 31.5147,-90.54427 46.6667,-136 7.5137,-22.54134 12.6995,-51.92204 25.3333,-72 M 945.33333,1011.4784 c -14.84716,2.1508 -22.40861,19.3487 -28.32918,31.1883 L 870.33748,1136 l -134.0083,268 -36,72 c -6.847,13.694 -12.90291,29.8128 -25.66353,39.1821 C 648.96798,1534.0503 616.15662,1484.1566 600,1468 L 441.33333,1309.3333 c -17.97973,-17.9797 -44.75451,-49.9306 -72,-27.5607 -25.79455,21.1787 -48.39662,47.9574 -72,71.5607 -15.78676,15.7868 -34.00695,30.3588 -41.73559,52 C 249.2312,1423.1606 252,1443.9989 252,1462.6667 v 104 c 0,36.0058 -9.04838,86.0153 8.43209,118.6666 13.68235,25.557 41.91805,46.3501 62.23458,66.6667 41.12142,41.1214 81.56844,82.9019 122.66666,124 34.6434,34.6434 68.42334,70.2498 102.64714,105.3333 20.7948,21.3171 38.85836,44.5904 70.6862,47.7727 21.37064,2.1367 43.85323,0.2273 65.33333,0.2273 20.75317,0 41.9869,1.9548 61.33333,-7.0976 20.28418,-9.4914 36.15625,-29.9489 50.89299,-46.2357 12.15454,-13.4329 26.05957,-25.2337 38.21403,-38.6667 25.29232,-27.9524 52.29443,-54.6069 78.89193,-81.3333 10.13045,-10.1795 20.75073,-25.6999 37.33439,-23.3241 14.67057,2.1018 24.87207,16.1962 34.66666,25.9908 23.97107,23.971 48.15157,48.2 70.89297,73.3333 12.5758,13.8984 26.9716,26.1016 39.5474,40 15.5363,17.1704 32.5242,39.0687 53.5596,49.5864 23.1372,11.5685 50.9541,7.7469 76,7.7469 17.7585,0 37.1106,2.1566 54.6667,-0.5854 28.1953,-4.4037 44.807,-24.2217 64,-43.4146 31.9997,-31.9996 62.667,-65.3336 94.6667,-97.3333 43.3152,-43.3153 85.9928,-87.3262 129.3333,-130.6667 21.6605,-21.6604 51.326,-43.6536 66.25,-70.6666 18.6834,-33.8181 9.75,-83.8 9.75,-121.3334 V 1460 c 0,-22.5923 2.0588,-44.5303 -8.498,-65.3333 -13.6967,-26.9903 -44.9475,-49.4455 -66.1687,-70.6667 -14.7653,-14.7652 -31.4098,-38.5391 -50.6666,-47.2562 -27.6887,-12.5338 -51.3978,19.9874 -68,36.5895 L 1297.3333,1466.6667 1256,1507.999 c -9.6795,9.6322 -20.282,17.2883 -33.3333,8.2634 -13.3459,-9.2287 -19.9851,-24.9076 -26.9959,-38.9291 l -36,-72 -138.0083,-276 L 974.99585,1036 c -5.64193,-11.255 -14.65226,-26.6961 -29.66252,-24.5216 M 2356,1688 h 1.3333 c 5.0957,17.8254 14.8278,34.9466 22.1049,52 16.5594,38.8065 33.872,77.2941 50.6625,116 9.2738,21.3779 16.4159,52.6349 37.8993,64.8538 12.3861,7.045 26.3029,5.8129 40,5.8129 h 64 c 31.5143,0 80.5553,10.2876 101.8498,-18.6667 11.0504,-15.0254 10.3725,-38.1608 12.8169,-56 5.4194,-39.5514 10.6644,-79.1286 16.1738,-118.6667 15.4759,-111.0628 29.5267,-222.3457 45.5205,-333.3333 5.0547,-35.0773 9.5999,-70.2291 14.4795,-105.3333 2.3561,-16.9513 8.4909,-37.6301 6.2419,-54.6667 -3.2891,-24.9143 -35.3575,-18.6667 -53.0824,-18.6667 h -121.3333 c -20.9229,0 -41.6664,-2.4742 -57.0865,14.6862 -19.087,21.2413 -14.7552,62.5263 -17.9609,89.3138 -6.529,54.5578 -11.7116,109.3286 -17.1779,164 -2.6418,26.4222 -7.7572,53.4343 -7.7747,80 h -1.3334 c -15.1556,-39.2887 -28.6849,-79.2199 -43.434,-118.6666 -6.2994,-16.8474 -10.2614,-39.5104 -22.5228,-53.106 -16.9732,-18.8201 -41.8988,-14.894 -64.7098,-14.894 -20.5926,0 -48.6141,-5.1293 -66.6667,6.6214 -19.0146,12.3769 -24.0646,37.2331 -31.1245,57.3786 -14.377,41.025 -29.2311,82.1106 -44.8755,122.6666 -6.7059,-22.6344 -5.7048,-49.8281 -8.2212,-73.3333 -5.4702,-51.0967 -10.8914,-102.2004 -16.0041,-153.3333 -3.4142,-34.1478 2.3441,-100.5174 -34.4414,-117.465 -16.3318,-7.5243 -38.408,-3.8684 -56,-3.8684 h -114.6666 c -17.8059,0 -45.6296,-4.1621 -46.6081,21.3334 -0.5988,15.6019 3.8656,32.5561 6.0421,48 4.1931,29.7504 8.2733,59.5431 12.1905,89.3333 14.6154,111.152 32.1388,222.026 45.5019,333.3333 5.0791,42.3065 12.2544,84.3615 17.3334,126.6667 2.3558,19.6221 1.5874,48.3177 12.3849,65.3333 20.5114,32.3233 72.4432,21.3334 105.1553,21.3334 h 64 c 13.2617,0 26.7059,1.0791 38.6666,-5.8169 21.4517,-12.3677 28.6211,-43.4618 37.8993,-64.8498 15.2404,-35.1325 30.4375,-70.3035 45.9145,-105.3333 8.9911,-20.35 20.6993,-41.2972 26.8529,-62.6667 m 733.3333,134.6667 h 172 49.3334 c 6.584,0 16.3392,-1.7906 22.4896,0.8045 7.5843,3.2 9.7871,18.8752 12.4332,25.8621 8.2067,21.6683 12.8285,50.2272 30.43,66.5267 15.0495,13.9362 35.7754,10.8067 54.6472,10.8067 h 122.6666 c 15.4043,0 40.7198,4.8071 54.6615,-2.251 22.2868,-11.2829 6.0338,-39.6624 0.4495,-56.4157 -18.1188,-54.3561 -37.4375,-108.3135 -55.5553,-162.6667 -38.46,-115.3797 -79.319,-229.9563 -117.778,-345.3333 -10.3796,-31.1388 -20.3857,-62.5905 -31.8786,-93.3333 -5.0983,-13.638 -7.9704,-28.7929 -20.5667,-37.8159 -14.7272,-10.5491 -34.9603,-7.5175 -51.999,-7.5175 H 3220 3086.6667 c -21.3789,0 -43.4623,-0.5739 -54.9011,21.3334 -18.9225,36.2402 -28.6126,81.2078 -41.5433,120 -27.4082,82.2241 -53.7728,165.4863 -84.1214,246.6666 -26.7519,71.5599 -49.9193,144.8588 -74.1009,217.3334 -6.2406,18.7029 -12.8525,37.2937 -19.111,56 -2.9525,8.8245 -7.8786,18.4365 -5.6966,28 2.7653,12.1212 13.8356,15.9816 24.8076,16 h 77.3333 89.3334 c 15.2334,0 31.7024,2.2584 45.3333,-5.9722 21.8252,-13.1785 27.625,-46.3143 35.5895,-68.6945 3.4082,-9.5765 8.0173,-19.2977 9.7438,-29.3333 m 913.3334,-120 H 4064 c 6.3086,0 18.2386,-2.2728 23.3353,2.1378 11.0941,9.6011 17.526,36.4152 23.3314,49.8622 16.7669,38.8374 34.2073,77.4354 51.5924,116 10.4981,23.2872 19.0537,54.5524 49.7409,55.9476 65.4775,2.9765 131.7803,0.052 197.3333,0.052 18.209,0 57.35,7.5988 60.5896,-18.6667 2.2379,-18.1447 -17.6687,-41.8451 -25.5967,-57.3333 -23.4164,-45.7456 -49.0974,-90.3324 -72.6709,-136 -6.6345,-12.8529 -24.8451,-34.4685 -25.4186,-48.8991 -0.2494,-6.2725 17.2229,-14.2276 21.7633,-17.6276 19.3691,-14.5047 36.4372,-32.8002 49.0618,-53.4733 40.7839,-66.7847 44.3109,-162.4623 11.8601,-233.3334 -7.7546,-16.9353 -18.2676,-32.3777 -30.1491,-46.6666 -90.2025,-108.4787 -243.544,-93.3334 -369.4395,-93.3334 h -108 H 3792 c -15.5889,0 -39.1426,-4.6295 -51.8757,6.0391 -12.6748,10.6196 -9.4576,28.5754 -9.4576,43.2943 v 112 V 1772 1873.3333 c 0,13.3199 -3.2832,31.2435 5.0667,42.6132 11.7464,15.9944 37.6279,10.7202 54.9333,10.7202 h 150.6666 c 18.1944,0 45.8347,5.8086 57.3734,-12.0052 9.5866,-14.7998 3.96,-44.2051 3.96,-61.3282 v -150.6666 m 846.6666,28 v -64 H 5094.6667 5164 c 10.2861,0 23.7565,2.2649 33.3333,-2.0772 16.7858,-7.6108 16,-23.596 16,-39.2562 v -98.6666 c 0,-14.3578 2.4489,-30.5954 -10.72,-40.2665 -8.9349,-6.5617 -20.1625,-5.0669 -30.6133,-5.0669 h -65.3333 -257.3334 v -64 h 288 80 c 10.8402,0 26.0668,2.7175 36,-2.2509 15.9418,-7.974 16,-23.6504 16,-39.0824 v -97.3333 c 0,-13.7395 2.9978,-31.5129 -3.888,-43.9805 -8.7327,-15.8119 -26.081,-13.3529 -41.4453,-13.3529 h -108 -380 -97.3333 c -12.1944,0 -29.7035,-3.2763 -39.9948,4.5586 -14.5202,11.0542 -12.0052,28.6006 -12.0052,44.7748 v 108 401.3333 97.3333 c 0,14.8776 -2.4766,31.2743 9.3909,42.5227 8.0495,7.6295 17.6247,6.8107 27.9424,6.8107 h 54.6667 228 277.3333 58.6667 c 13.7555,0 26.5377,-0.6716 33.5472,-14.6667 5.805,-11.5903 2.4528,-29.9701 2.4528,-42.6667 v -96 c 0,-15.0271 1.8493,-30.8336 -13.3343,-39.5102 -10.056,-5.7466 -24.8122,-3.1564 -35.9991,-3.1564 H 5148 4849.3333 m -843.5761,-321.8622 c 8.8476,-4.3538 27.0918,-0.8045 36.9095,-0.8045 h 70.6666 c 13.6107,0 29.6989,-0.4909 41.3282,7.7336 28.1572,19.9132 29.1416,77.65 -2.6615,94.4969 -12.7103,6.7329 -28.7096,5.7695 -42.6667,5.7695 H 4040 c -8.0456,0 -28.7591,3.7272 -35.1953,-1.3704 -4.4264,-3.5059 -2.138,-16.2478 -2.138,-21.2963 V 1432 c 0,-5.3132 -2.6332,-20.3789 3.0905,-23.1955 m -792.4239,8.5288 43.1257,125.3334 27.541,82.6666 h -141.3333 c 2.5058,-28.6914 19.4238,-60.7763 28.8743,-88 9.0785,-26.1513 17.9281,-52.4069 26.6813,-78.6666 4.4105,-13.2316 7.6804,-29.5244 15.111,-41.3334 M 1096,1618.6667 c -7.4339,14.33 -23.3211,25.9878 -34.6667,37.3333 L 988,1729.3333 c -13.76245,13.7624 -26.77848,27.8381 -48,23.7676 -12.2666,-2.353 -20.9432,-12.7108 -29.33333,-21.1009 L 861.33333,1682.6667 826.66667,1648 c -6.84343,-6.8434 -14.81022,-13.0011 -17.33334,-22.6667 32.55575,18.5492 61.61979,45.4968 92,67.4343 14.17432,10.2352 28.03052,23.8652 46.66667,23.6172 19.63127,-0.2613 34.45947,-14.7315 49.33333,-25.8869 21.22817,-15.9211 42.70007,-31.5145 63.99997,-47.3374 10.9454,-8.1309 22.0797,-19.1727 34.6667,-24.4938 m -152,265.9248 c -16.90446,2.5153 -27.243,15.9848 -38.66667,27.4085 -22.66447,22.6646 -45.46647,45.2005 -67.99487,68 -9.62126,9.737 -25.72811,28.0553 -11.86011,41.034 14.15511,13.2473 43.45207,8.2993 61.18832,8.2993 H 996 c 19.984,0 41.6803,2.3394 61.3333,-1.8333 22.5282,-4.7832 20.3226,-24.9385 8.5083,-39.5 -23.7109,-29.2241 -53.8978,-54.723 -80.50827,-81.3333 C 974.00985,1895.3431 961.68962,1881.9595 944,1884.5915 Z"
       id="path1" />
  </g>
</svg>
